<svg width="64" height="64" viewBox="0 0 64 64" fill="none" xmlns="http://www.w3.org/2000/svg">
<path d="M11.6 49.1999L11.94 48.7259L27.98 18.2979L28.014 17.9759L20.944 4.69588C20.8146 4.45303 20.6121 4.25703 20.3651 4.13561C20.1182 4.01418 19.8393 3.97348 19.5679 4.01926C19.2966 4.06504 19.0465 4.19498 18.853 4.3907C18.6596 4.58642 18.5326 4.83801 18.49 5.10988L11.6 49.1999Z" fill="#FFC24A"/>
<path d="M11.8 48.8401L12.056 48.3401L27.93 18.2281L20.878 4.89612C20.7617 4.66427 20.5734 4.47634 20.3413 4.36048C20.1093 4.24463 19.8459 4.20709 19.5907 4.25349C19.3355 4.29989 19.1022 4.42773 18.9258 4.61786C18.7493 4.80799 18.6392 5.05017 18.612 5.30812L11.8 48.8401Z" fill="#FFA712"/>
<path d="M33.168 28.0199L38.432 22.6199L33.166 12.5779C33.0501 12.3618 32.8778 12.1812 32.6673 12.0552C32.4569 11.9293 32.2162 11.8628 31.971 11.8628C31.7258 11.8628 31.4851 11.9293 31.2747 12.0552C31.0642 12.1812 30.8919 12.3618 30.776 12.5779L27.962 17.9419V18.3999L33.168 28.0199Z" fill="#F4BD62"/>
<path d="M33.074 27.7999L38.192 22.5599L33.074 12.8C32.9902 12.5887 32.8471 12.4062 32.662 12.2744C32.4768 12.1426 32.2575 12.0672 32.0304 12.0573C31.8034 12.0473 31.5783 12.1033 31.3824 12.2184C31.1864 12.3335 31.0279 12.5028 30.926 12.706L28.098 18.164L28.014 18.442L33.074 27.7999Z" fill="#FFA50E"/>
<path d="M11.604 49.2021L11.758 49.0461L12.316 48.8201L32.836 28.3761L33.096 27.6681L27.978 17.9121L11.604 49.2021Z" fill="#F6820C"/>
<path d="M33.824 59.5119L52.4 49.1539L47.092 16.4919C47.0539 16.2617 46.9532 16.0463 46.8008 15.8696C46.6484 15.6929 46.4502 15.5615 46.2281 15.49C46.0059 15.4185 45.7684 15.4096 45.5415 15.4643C45.3146 15.5189 45.1072 15.6351 44.942 15.7999L11.6 49.1999L30.066 59.5099C30.6401 59.8302 31.2866 59.9984 31.944 59.9984C32.6014 59.9984 33.2479 59.8302 33.822 59.5099" fill="#FDE068"/>
<path d="M52.23 49.068L46.966 16.652C46.9567 16.4318 46.8823 16.2192 46.7522 16.0413C46.622 15.8634 46.4421 15.7281 46.235 15.6525C46.0279 15.5769 45.8031 15.5645 45.589 15.6167C45.3748 15.6689 45.181 15.7835 45.032 15.946L11.8 49.138L30.062 59.338C30.6315 59.6557 31.2728 59.8225 31.925 59.8225C32.5772 59.8225 33.2185 59.6557 33.788 59.338L52.23 49.068Z" fill="#FCCA3F"/>
<path d="M33.824 59.2C33.2499 59.5204 32.6034 59.6885 31.946 59.6885C31.2886 59.6885 30.6421 59.5204 30.068 59.2L11.752 49.044L11.6 49.2L30.066 59.51C30.6401 59.8304 31.2866 59.9985 31.944 59.9985C32.6014 59.9985 33.2479 59.8304 33.822 59.51L52.4 49.154L52.354 48.874L33.824 59.2Z" fill="#EEAB37"/>
</svg>
