<svg width="64" height="64" viewBox="0 0 64 64" fill="none" xmlns="http://www.w3.org/2000/svg">
<path d="M36.1 59.2C36.184 59.01 36.396 58.878 36.55 58.718C38.9 56.254 41.27 53.812 43.588 51.318C44.3133 50.648 44.8739 49.8194 45.2257 48.8968C45.5775 47.9742 45.7111 46.9827 45.616 46C45.5432 45.5791 45.4477 45.1625 45.33 44.752C44.698 45.352 44.11 45.898 43.518 46.448C42.598 47.304 41.682 48.164 40.754 49.01C40.2068 49.5679 39.5032 49.9467 38.7362 50.0963C37.9691 50.2459 37.1748 50.1593 36.458 49.848C35.7324 49.5814 35.1011 49.1076 34.6424 48.4854C34.1838 47.8632 33.9179 47.1199 33.878 46.348C33.8565 46.2487 33.8277 46.1511 33.792 46.056C33.086 46.656 32.41 47.208 31.74 47.776L17.814 59.576C17.718 59.658 17.614 59.76 17.524 59.84H36.09L36.062 59.822C35.962 59.752 36.014 59.384 36.1 59.2Z" fill="#FFCEBF"/>
<path d="M16.674 59.2C16.8391 58.985 17.0385 58.7985 17.264 58.648L36.536 42.298C37.8507 41.182 39.1593 40.06 40.462 38.932C40.623 38.8198 40.7491 38.6645 40.826 38.484C41.1376 37.1262 41.1818 35.7207 40.956 34.346C40.756 34.486 40.648 34.546 40.556 34.644C38.978 36.056 37.408 37.48 35.822 38.884C35.2966 39.4128 34.6171 39.7614 33.8811 39.8796C33.1451 39.9978 32.3906 39.8796 31.726 39.542C31.048 39.2219 30.4806 38.7074 30.0959 38.0638C29.7113 37.4202 29.5268 36.6767 29.566 35.928C29.566 35.758 29.566 35.59 29.566 35.28C29.276 35.492 29.064 35.634 28.866 35.794C21.1527 41.97 13.4407 48.1413 5.73 54.308C5.382 54.586 4.966 55.206 4.51 54.604C4.054 54.002 4.748 53.754 5.098 53.474C13.318 46.878 21.542 40.288 29.77 33.704C31.11 32.63 31.198 32.18 30.326 30.474L29.806 30.962C28.38 32.288 26.938 33.596 25.534 34.944C24.9581 35.4995 24.2368 35.8808 23.4534 36.0439C22.67 36.2069 21.8565 36.1451 21.1067 35.8654C20.357 35.5858 19.7016 35.0999 19.2163 34.4637C18.731 33.8275 18.4355 33.067 18.364 32.27C18.098 32.47 17.868 32.616 17.65 32.786L5.45 42.242C5.23958 42.4484 4.99962 42.6223 4.738 42.758C4.54055 42.8177 4.32852 42.8071 4.138 42.728V59.85H16.65C16.6035 59.7472 16.5814 59.635 16.5856 59.5222C16.5898 59.4094 16.62 59.2991 16.674 59.2Z" fill="#FFCEBF"/>
<path d="M50.474 4.84602C50.134 5.96002 49.804 7.07602 49.506 8.20202C49.2307 8.99774 49.2628 9.8676 49.5958 10.6409C49.9288 11.4143 50.5387 12.0352 51.306 12.382C53.6528 13.6156 56.2974 14.1697 58.942 13.982V5.03602C58.9126 4.83989 58.9235 4.63982 58.974 4.44802C59.03 4.33954 59.1007 4.23926 59.184 4.15002H50.466C50.6 4.30602 50.554 4.58002 50.474 4.84602Z" fill="#FF6196"/>
<path d="M32.964 24.064C32.9225 25.0626 32.5732 26.0238 31.964 26.816C29.786 29.6276 27.2848 32.173 24.512 34.4001C24.0648 34.814 23.4981 35.0756 22.893 35.1475C22.2879 35.2193 21.6757 35.0977 21.144 34.8C20.6148 34.574 20.1686 34.1896 19.8667 33.6997C19.5648 33.2098 19.422 32.6384 19.458 32.064C19.522 31.3587 19.8149 30.6936 20.292 30.17C23.3927 27.2135 26.7521 24.5408 30.33 22.184C30.5643 22.0003 30.8505 21.8949 31.148 21.8827C31.4456 21.8705 31.7394 21.9521 31.988 22.116C32.3147 22.3189 32.5789 22.6083 32.7512 22.9522C32.9234 23.296 32.9971 23.6809 32.964 24.064Z" fill="#FF87AF"/>
<path d="M30.568 36.186C30.5216 35.744 30.5783 35.2971 30.7338 34.8807C30.8893 34.4642 31.1392 34.0895 31.464 33.786C34.5 30.9859 37.7572 28.4356 41.204 26.16C41.308 26.094 41.404 26.028 41.518 25.96C41.8191 25.7427 42.1839 25.6316 42.555 25.6443C42.9261 25.657 43.2825 25.7927 43.568 26.03C43.8443 26.2641 44.0398 26.5793 44.1267 26.9308C44.2135 27.2823 44.1874 27.6522 44.052 27.988C43.6159 29.4404 42.8111 30.7551 41.716 31.804C39.506 34.004 37.212 36.132 34.916 38.244C34.5683 38.6016 34.1116 38.8334 33.6177 38.9029C33.1238 38.9724 32.6209 38.8757 32.188 38.628C31.7331 38.3917 31.3458 38.0436 31.0624 37.6164C30.779 37.1892 30.6089 36.697 30.568 36.186Z" fill="#FF87AF"/>
<path d="M45 37.508C44.44 38.108 43.864 38.68 43.326 39.294C43.1642 39.5314 43.03 39.7863 42.926 40.0541C43.222 40.1421 43.568 40.374 43.808 40.292C45.03 39.882 46.222 39.3901 47.564 38.8721C47.272 39.5441 47.052 40.164 46.742 40.732C45.4649 42.8783 43.8656 44.8156 42 46.4761C41.2907 47.1601 40.554 47.814 39.79 48.438C39.3854 48.7738 38.8989 48.9961 38.3802 49.0821C37.8616 49.1681 37.3293 49.1148 36.838 48.9276C36.3467 48.7405 35.9139 48.4262 35.584 48.0168C35.254 47.6075 35.0387 47.1179 34.96 46.598C34.9279 46.309 34.9535 46.0165 35.0352 45.7374C35.1169 45.4583 35.2531 45.1982 35.436 44.972C38.1577 42.0166 41.2681 39.4444 44.682 37.326C44.7235 37.31 44.7675 37.3012 44.812 37.3L45 37.508Z" fill="#FF87AF"/>
<path d="M49.588 29.542L53.01 14.342L55.41 14.904L54.172 18.666C53.016 22.166 51.846 25.666 50.718 29.17C50.498 29.818 50.21 29.938 49.588 29.542Z" fill="#FF6196"/>
<path d="M45.724 38.482C46.086 37.1 46.446 35.822 46.75 34.53C47.0463 33.277 47.6098 32.1029 48.402 31.088C48.888 30.45 49.434 30.704 49.992 30.842C50.508 30.968 50.638 31.346 50.66 31.842C50.7414 33.2136 50.3236 34.5683 49.484 35.656C48.4844 36.8952 47.1923 37.8663 45.724 38.482Z" fill="#FF6196"/>
<path d="M58.9747 5.72399C59.0035 5.29448 58.9925 4.86323 58.9419 4.43574C58.9021 4.31633 58.8234 4.21377 58.7183 4.14453C58.6327 4.07492 58.5325 4.02548 58.4251 3.99989C58.3634 3.98832 58.2767 4.05196 58.1937 4.1426C58.1134 4.22865 58.0453 4.32534 57.9913 4.42995C57.9426 4.61489 57.9321 4.80781 57.9604 4.99694V13.6213C55.4105 13.8023 52.8607 13.268 50.598 12.0785C49.8582 11.7441 49.2701 11.1453 48.9491 10.3996C48.628 9.65389 48.5971 8.81513 48.8625 8.04785C49.1498 6.9621 49.468 5.88598 49.7958 4.8118C49.8729 4.55531 49.9173 4.2911 49.7958 4.14067C49.7282 4.06745 49.6349 4.02322 49.5355 4.01725C49.4081 4.01862 49.2847 4.06201 49.1845 4.14067C49.0403 4.22694 48.9254 4.35462 48.8548 4.50709C48.4691 5.6642 48.1297 6.83288 47.8347 8.01314C47.7233 8.47824 47.6933 8.95911 47.746 9.43445C47.8206 10.2945 48.1404 11.1151 48.6675 11.7988C49.1946 12.4825 49.9068 13.0006 50.7195 13.2915C51.0839 13.4438 51.298 13.5943 51.1958 14.0745C51.055 14.6839 50.9181 15.2933 50.7793 15.9046C49.8344 20.0471 48.8946 24.1915 47.96 28.3378C47.9337 28.5226 47.8524 28.6953 47.7267 28.8334C47.1107 29.3231 46.5931 29.9251 46.2014 30.6076C45.7022 31.5083 45.3568 32.486 45.1794 33.5004C45.1453 33.824 45.0284 34.1333 44.8399 34.3985C44.6514 34.6637 44.3977 34.8758 44.1033 35.0143C43.2992 35.4212 42.5607 35.9477 41.6678 36.4954C41.7274 35.4216 41.7158 34.3451 41.6331 33.2729C41.5652 32.943 41.5796 32.6015 41.6751 32.2786C41.7707 31.9556 41.9443 31.6613 42.1808 31.4215C43.3569 30.2563 44.1952 28.794 44.6066 27.1903C44.7295 26.8186 44.7632 26.4231 44.705 26.0359C44.6468 25.6487 44.4983 25.2807 44.2715 24.9615C44.0447 24.6424 43.7461 24.381 43.3996 24.1987C43.0532 24.0163 42.6687 23.9181 42.2772 23.9118C41.6434 23.9048 41.0211 24.0816 40.4858 24.421C38.6404 25.6668 36.8451 26.9897 35.0633 28.3281C34.0085 29.1227 33.0154 30.0021 31.9934 30.8352C31.9493 30.7879 31.9111 30.7354 31.8796 30.679C31.86 30.537 31.8218 30.3982 31.7658 30.2663C30.9116 28.9472 31.5036 27.9887 32.4311 27.0032C33.3974 25.9902 33.9313 24.6407 33.9198 23.2407C33.9497 22.5274 33.7264 21.8265 33.2892 21.2621C33.0563 20.9755 32.7693 20.7377 32.4446 20.562C31.9833 20.3095 31.4559 20.2041 30.933 20.26C30.4101 20.3158 29.9168 20.5302 29.5193 20.8744L28.9813 21.2601C27.7529 22.1395 26.5091 22.9958 25.3271 23.9369C23.6012 25.31 21.9158 26.741 20.2632 28.2066C19.4919 28.8874 18.9288 29.817 18.1286 30.4495C13.9556 33.7453 9.73835 36.9814 5.53649 40.2387C5.39201 40.3249 5.25916 40.4292 5.14118 40.5491C5.12904 40.5667 5.1187 40.5854 5.11033 40.6051C5.02162 40.8114 4.94642 41.1528 5.05055 41.2781C5.07607 41.3053 5.10692 41.327 5.14118 41.3418C5.32487 41.418 5.52931 41.4282 5.71968 41.3707C5.97193 41.2398 6.2033 41.0721 6.40617 40.8731L18.1691 31.7551C18.3793 31.5912 18.601 31.4427 18.8575 31.2576C18.9264 32.026 19.2113 32.7594 19.6793 33.3728C20.1472 33.9863 20.7791 34.4549 21.5019 34.7245C22.2248 34.9941 23.0092 35.0538 23.7645 34.8965C24.5198 34.7393 25.2153 34.3716 25.7706 33.836C27.1204 32.5362 28.5146 31.2749 29.8895 29.9963L30.3909 29.5257C31.2317 31.1708 31.1468 31.6047 29.8548 32.6403C21.9152 38.9941 13.9813 45.3492 6.05329 51.7056C5.71583 51.9756 5.04862 52.2205 5.48635 52.7952C5.92409 53.3699 6.32711 52.7779 6.66264 52.5098C14.1009 46.5687 21.534 40.6199 28.962 34.6633C29.1548 34.509 29.3573 34.3721 29.6369 34.1677C29.6369 34.4666 29.6369 34.6286 29.6369 34.7925C29.5991 35.5145 29.777 36.2314 30.1478 36.852C30.5187 37.4725 31.0658 37.9687 31.7195 38.2774C32.3603 38.6029 33.0878 38.7169 33.7974 38.6029C34.507 38.4889 35.1622 38.1528 35.6688 37.6429C37.1979 36.2929 38.7117 34.916 40.2332 33.5544C40.3296 33.4676 40.4414 33.4021 40.6188 33.2671C40.8365 34.5926 40.7939 35.9479 40.4935 37.2572C40.4193 37.4312 40.2977 37.5809 40.1425 37.6892C38.8852 38.7756 37.6235 39.8575 36.3572 40.9349L17.7834 56.7024C17.5659 56.8475 17.3738 57.0273 17.2145 57.2347C17.1637 57.3293 17.1352 57.4342 17.1312 57.5415C17.1272 57.6488 17.1478 57.7556 17.1914 57.8537C17.2785 57.919 17.3792 57.9638 17.4861 57.9849C17.5929 58.0059 17.7031 58.0026 17.8085 57.9752C17.8916 57.9511 17.9681 57.9082 18.0322 57.8499C18.1286 57.7727 18.225 57.6744 18.3118 57.5953L31.7388 46.2171C32.3848 45.6694 33.0366 45.1294 33.7173 44.5585C33.7518 44.6502 33.7795 44.7443 33.8002 44.8401C33.8387 45.5845 34.095 46.3011 34.5373 46.9011C34.9795 47.5011 35.5882 47.958 36.2878 48.215C36.9789 48.5153 37.7448 48.5988 38.4843 48.4545C39.2239 48.3102 39.9023 47.9449 40.4299 47.407C41.3246 46.5912 42.2078 45.7619 43.0948 44.9365C43.6733 44.4062 44.2325 43.8739 44.8419 43.3011C44.9554 43.697 45.0475 44.0987 45.1177 44.5045C45.2063 45.4491 45.076 46.4014 44.7369 47.2874C44.3978 48.1734 43.8589 48.9693 43.1623 49.6132C40.9274 52.02 38.6423 54.3747 36.3765 56.7487C36.228 56.903 36.0236 57.0303 35.9426 57.2135C35.8616 57.3967 35.8095 57.7554 35.906 57.8325L35.933 57.8499C36.1352 57.9482 36.3625 57.9825 36.5847 57.9482C36.647 57.9355 36.7025 57.9005 36.7409 57.8499C36.7949 57.794 36.847 57.7245 36.8991 57.6725C38.7348 55.7748 40.5803 53.8868 42.4025 51.9756C43.1381 51.2303 43.8296 50.4428 44.4736 49.617C45.3133 48.6874 45.8701 47.5372 46.0785 46.3018C46.2869 45.0664 46.1382 43.7973 45.6499 42.6435C45.5974 42.3863 45.6487 42.1187 45.7926 41.8991C45.9179 41.6831 46.0568 41.4729 46.1995 41.2646C46.656 40.6717 47.0363 40.0238 47.3314 39.3361C47.9016 37.6483 48.7768 36.0794 49.9134 34.7077C50.436 34.0451 50.7955 33.2689 50.963 32.4419C51.1305 31.6148 51.1012 30.7599 50.8776 29.9462C50.7986 29.6368 50.7986 29.3125 50.8776 29.0031C51.8534 25.9811 52.858 22.9688 53.853 19.9545C54.2991 18.6046 54.7427 17.2584 55.1836 15.9162L55.5943 14.6685C56.4698 14.6685 57.2951 14.6511 58.1166 14.6685C58.7992 14.6877 59.0075 14.3676 58.9998 13.7042C58.9593 11.0428 58.9747 8.38341 58.9747 5.72399ZM24.7717 33.3134C24.3406 33.7125 23.7941 33.9648 23.2107 34.0341C22.6273 34.1034 22.037 33.9861 21.5244 33.6991C21.0142 33.4811 20.584 33.1104 20.2929 32.638C20.0018 32.1656 19.8641 31.6146 19.8988 31.0608C19.9605 30.3807 20.2429 29.7393 20.7029 29.2345C23.6925 26.3836 26.9316 23.8065 30.3813 21.534C30.5695 21.4009 30.7837 21.3089 31.0099 21.264C31.1616 21.236 31.3171 21.236 31.4688 21.264C31.6505 21.2994 31.8239 21.3687 31.9799 21.4684C32.2952 21.6642 32.5501 21.9436 32.7162 22.2755C32.8823 22.6074 32.9532 22.9789 32.9209 23.3487C32.8809 24.3115 32.5441 25.2384 31.9567 26.0023C29.8567 28.7127 27.4451 31.1666 24.7717 33.3134ZM34.7991 37.0335C34.4639 37.3782 34.0235 37.6017 33.5473 37.6688C33.0711 37.7358 32.5862 37.6426 32.1688 37.4037C31.7295 37.1753 31.3555 36.8387 31.0822 36.4257C30.809 36.0128 30.6454 35.537 30.6069 35.0432C30.5621 34.6169 30.6168 34.1861 30.7667 33.7845C30.9166 33.383 31.1576 33.0217 31.4708 32.729C34.398 30.0289 37.5385 27.5698 40.8618 25.3756C40.9621 25.3119 41.0546 25.2483 41.1646 25.1827C41.4548 24.9731 41.8066 24.866 42.1644 24.8783C42.5222 24.8905 42.8658 25.0213 43.1411 25.2502C43.4075 25.4759 43.596 25.7798 43.6797 26.1188C43.7635 26.4577 43.7383 26.8144 43.6078 27.1382C43.1873 28.5387 42.4114 29.8064 41.3555 30.8179C39.2285 32.9431 37.0167 34.9892 34.8029 37.0257L34.7991 37.0335ZM46.1975 39.4268C44.9679 41.493 43.4285 43.3584 41.6331 44.9577C40.9492 45.6173 40.2389 46.2479 39.5023 46.8496C39.1122 47.1734 38.6431 47.3877 38.1431 47.4706C37.643 47.5536 37.1298 47.5022 36.6561 47.3217C36.1824 47.1412 35.7651 46.8381 35.447 46.4435C35.1288 46.0488 34.9212 45.5766 34.8454 45.0754C34.8145 44.7967 34.8391 44.5146 34.9179 44.2455C34.9967 43.9764 35.128 43.7255 35.3043 43.5075C37.9284 40.6576 40.9274 38.1774 44.219 36.1348C44.2591 36.1193 44.3015 36.1108 44.3444 36.1097L44.5372 36.3026C43.9973 36.8811 43.4419 37.4327 42.9232 38.0247C42.7672 38.2536 42.6378 38.4994 42.5375 38.7576C42.8229 38.8424 43.1565 39.0661 43.3879 38.9871C44.3193 38.6746 45.2353 38.3121 46.2168 37.9264L47.0094 37.6178C46.7124 38.2735 46.5003 38.8713 46.2014 39.419L46.1975 39.4268ZM48.8451 34.538C48.1258 35.4538 47.2243 36.2103 46.1975 36.7596C45.88 36.937 45.5541 37.1029 45.2199 37.2572C45.5631 35.9439 45.9063 34.727 46.1975 33.4966L46.2091 33.4464C46.4948 32.2383 47.0381 31.1061 47.8019 30.1274C48.2705 29.5122 48.7969 29.7572 49.3349 29.8902C49.8325 30.0117 49.9578 30.3762 49.979 30.8545C50.0581 32.176 49.6567 33.4815 48.849 34.5302L48.8451 34.538ZM53.3575 18.1456C52.2429 21.5205 51.1148 24.8954 50.0272 28.2741C49.8228 28.9086 49.5451 29.0243 48.9454 28.6425L51.8051 15.9278L52.2448 13.9761L54.5588 14.518C54.4007 14.9944 54.2484 15.463 54.0941 15.9278L53.3575 18.1456Z" fill="black"/>
</svg>
