<svg width="64" height="64" viewBox="0 0 64 64" fill="none" xmlns="http://www.w3.org/2000/svg">
<path d="M4 32V60H32H60V32V4H32H4V32Z" fill="#007ACC"/>
<path d="M49.128 29.768C50.469 30.08 51.6876 30.7822 52.63 31.786C53.149 32.3291 53.5996 32.9336 53.972 33.586C53.99 33.658 51.554 35.292 50.078 36.208C50.024 36.244 49.812 36.008 49.572 35.656C49.303 35.1912 48.9204 34.8022 48.4601 34.5255C47.9997 34.2488 47.4767 34.0935 46.94 34.074C45.242 33.958 44.14 34.848 44.158 36.332C44.1435 36.6965 44.2264 37.0582 44.398 37.38C44.772 38.154 45.464 38.616 47.642 39.558C51.642 41.282 53.366 42.42 54.442 44.038C55.041 45.0598 55.4093 46.2002 55.5212 47.3793C55.6332 48.5584 55.486 49.7478 55.09 50.864C54.5469 52.0897 53.6854 53.1476 52.5951 53.9277C51.5048 54.7078 50.2254 55.1817 48.89 55.3C47.4717 55.4628 46.0386 55.448 44.624 55.256C42.4566 54.9002 40.4599 53.8601 38.926 52.288C38.3469 51.6354 37.8566 50.9091 37.468 50.128C37.6318 50.0062 37.8042 49.8966 37.984 49.8C38.232 49.658 39.184 49.116 40.064 48.6L41.664 47.666L42 48.16C42.5695 48.9744 43.2948 49.6677 44.134 50.2C44.9786 50.6631 45.9351 50.8825 46.8971 50.8337C47.859 50.785 48.7886 50.4701 49.582 49.924C49.9888 49.5252 50.2428 48.9963 50.2998 48.4295C50.3568 47.8627 50.2132 47.2938 49.894 46.822C49.458 46.2 48.57 45.676 46.046 44.582C44.0666 43.912 42.2643 42.803 40.774 41.338C40.0632 40.5281 39.5382 39.5724 39.236 38.538C39.0124 37.3596 38.9793 36.1529 39.138 34.964C39.4346 33.5961 40.1446 32.3525 41.1716 31.4016C42.1987 30.4507 43.4933 29.8385 44.88 29.648C46.294 29.4745 47.7261 29.5149 49.128 29.768ZM35.982 32.106L36 34.4H28.712V55.112H23.556V34.4H16.266V32.152C16.2462 31.3808 16.2669 30.6091 16.328 29.84C16.354 29.804 20.79 29.786 26.168 29.796L35.954 29.822L35.982 32.106Z" fill="white"/>
</svg>
