<svg width="64" height="64" viewBox="0 0 64 64" fill="none" xmlns="http://www.w3.org/2000/svg">
<path d="M55.1 29.8626L34.125 8.90008C33.8381 8.61209 33.4972 8.38357 33.1219 8.22764C32.7465 8.07172 32.344 7.99146 31.9375 7.99146C31.531 7.99146 31.1285 8.07172 30.7531 8.22764C30.3778 8.38357 30.0369 8.61209 29.75 8.90008L25.4 13.2626L30.925 18.7751C31.5766 18.5544 32.2771 18.5211 32.9467 18.6789C33.6164 18.8367 34.2283 19.1793 34.7128 19.6677C35.1973 20.1562 35.535 20.7708 35.6874 21.4417C35.8398 22.1126 35.8009 22.8127 35.575 23.4626L40.8875 28.7751C41.6819 28.5011 42.5462 28.5076 43.3364 28.7936C44.1266 29.0796 44.7949 29.6278 45.2299 30.3468C45.665 31.0657 45.8405 31.9121 45.7272 32.7448C45.6139 33.5774 45.2186 34.3461 44.6073 34.9227C43.996 35.4993 43.2055 35.849 42.3676 35.9134C41.5297 35.9779 40.6951 35.7532 40.0028 35.2769C39.3104 34.8006 38.8023 34.1015 38.5629 33.2959C38.3236 32.4904 38.3676 31.6271 38.6875 30.8501L33.725 25.8876V38.9501C34.4772 39.3243 35.0785 39.9451 35.4287 40.7088C35.7789 41.4726 35.8567 42.3333 35.6493 43.1475C35.4419 43.9617 34.9618 44.6803 34.2889 45.1834C33.6161 45.6866 32.7911 45.9441 31.9515 45.9128C31.1118 45.8816 30.3083 45.5636 29.6746 45.0118C29.041 44.4601 28.6156 43.7078 28.4692 42.8805C28.3229 42.0531 28.4645 41.2006 28.8704 40.4649C29.2763 39.7293 29.922 39.1549 30.7 38.8376V25.6626C30.2503 25.4791 29.8415 25.2082 29.4971 24.8657C29.1527 24.5233 28.8796 24.1159 28.6937 23.6672C28.5077 23.2185 28.4125 22.7375 28.4136 22.2518C28.4147 21.7661 28.512 21.2854 28.7 20.8376L23.2625 15.4001L8.8875 29.7751C8.30967 30.3539 7.98514 31.1384 7.98514 31.9563C7.98514 32.7742 8.30967 33.5587 8.8875 34.1376L29.875 55.1001C30.1619 55.3881 30.5028 55.6166 30.8781 55.7725C31.2535 55.9284 31.656 56.0087 32.0625 56.0087C32.469 56.0087 32.8715 55.9284 33.2469 55.7725C33.6222 55.6166 33.9631 55.3881 34.25 55.1001L55.1125 34.2251C55.6903 33.6462 56.0149 32.8617 56.0149 32.0438C56.0149 31.2259 55.6903 30.4414 55.1125 29.8626" fill="#F05133"/>
</svg>
