<svg width="64" height="64" viewBox="0 0 64 64" fill="none" xmlns="http://www.w3.org/2000/svg">
<path d="M56.8183 15.9652L34.5408 4.53054C33.1373 3.82315 31.2988 3.82315 29.8842 4.53054L7.4325 15.9652C5.98461 16.7025 5 18.0883 5 19.5705V42.4094C5 43.8916 6.0053 45.2778 7.4537 46.0192L13.3729 49.0059C16.2127 50.2438 16.9995 50.2438 18.2914 50.2438C22.4974 50.2438 24.6816 47.9935 24.6816 44.0685V21.5207C24.6821 21.2023 24.9066 20.7284 24.5529 20.7284H21.7156C21.3563 20.7284 20.6447 21.2023 20.6447 21.5202V44.068C20.6447 45.8079 18.8198 47.5393 15.4961 46.0687L9.3785 42.9369C9.16553 42.8341 9.03735 42.6274 9.03735 42.4094V19.5705C9.03735 19.3552 9.27101 19.1391 9.48701 19.0288L31.8832 7.61372C32.0926 7.50878 32.3888 7.50878 32.5973 7.61372L54.784 19.0261C54.9965 19.1391 54.9627 19.3485 54.9627 19.5705V42.4094C54.9627 42.6274 55.0091 42.8395 54.7996 42.9445L32.5271 54.3662C32.3364 54.4676 32.0881 54.4676 31.8786 54.3662L26.1673 51.3522C25.9952 51.2638 25.7878 51.2321 25.6223 51.3138C24.0351 52.1101 23.7403 52.2159 22.2516 52.6727C21.8847 52.7857 21.3437 52.9818 22.4575 53.5342L29.9256 57.4436C30.6402 57.8098 31.4532 58 32.2708 58C33.0994 58 33.9104 57.8098 34.6255 57.4436L56.8188 46.0192C58.2677 45.2725 59 43.8916 59 42.4094V19.5705C58.9995 18.0883 58.2672 16.7061 56.8183 15.9652ZM39.1797 38.7904C33.2614 38.7904 31.9584 37.3457 31.5238 34.7417C31.4724 34.4612 31.2039 34.1258 30.8809 34.1258H27.9892C27.6313 34.1258 27.3432 34.5099 27.3432 34.8252C27.3432 38.1593 29.3921 42.1991 39.1797 42.1991C46.2642 42.1991 50.3268 39.763 50.3268 35.4517C50.3268 31.1771 47.0631 30.0553 40.192 29.2505C33.2468 28.4382 32.5413 28.0278 32.5413 26.588C32.5413 25.401 33.1388 23.8179 38.2814 23.8179C42.8759 23.8179 44.5695 24.6905 45.2665 27.4312C45.3265 27.6888 45.5925 27.8737 45.8928 27.8737H48.7966C48.9753 27.8737 49.1453 27.8099 49.2705 27.6969C49.3921 27.5754 49.4557 27.4231 49.4401 27.2597C48.9894 22.5398 45.4466 20.3404 38.2808 20.3404C31.9059 20.3404 28.1037 22.7224 28.1037 26.7153C28.1037 31.0462 31.8872 32.2431 38.0063 32.7785C45.3265 33.4135 45.8958 34.3603 45.8958 35.6344C45.8958 37.8476 43.8882 38.7904 39.1797 38.7904Z" fill="#83CD29"/>
</svg>
