<svg width="64" height="64" viewBox="0 0 64 64" fill="none" xmlns="http://www.w3.org/2000/svg">
<path d="M26.6196 9.59231C26.6196 11.6613 24.9404 13.3405 22.8714 13.3405C20.8024 13.3405 19.1232 11.6613 19.1232 9.59231C19.1232 7.52331 20.8024 5.84412 22.8714 5.84412C24.9404 5.84412 26.6196 7.52331 26.6196 9.59231Z" fill="#F9F9F9"/>
<path d="M31.5972 2.13586C29.1284 2.14586 26.7645 2.36076 24.6855 2.72058C18.566 3.79506 17.4515 6.02899 17.4515 10.1595V15.6169H31.917V17.4335H12.0241C7.81616 17.4335 4.13794 19.9323 2.986 24.685C1.65914 30.1323 1.58917 33.5382 2.986 39.218C4.0105 43.4534 6.46182 46.4695 10.6673 46.4695H14.9227V39.2279C14.9227 34.5127 19.0607 30.3747 23.9709 30.3747H39.1135C43.1341 30.3747 46.9423 27.0938 46.9423 23.1032V10.1895C46.9423 6.31385 43.0466 3.39526 39.1135 2.75057C36.6347 2.34077 34.0585 2.15585 31.5922 2.16585L31.5972 2.13586ZM23.7735 6.51875C25.2677 6.51875 26.4871 7.74815 26.4871 9.26242C26.4871 10.7667 25.2677 11.9761 23.7735 11.9761C22.2692 11.9761 21.0498 10.7667 21.0498 9.26242C21.0498 7.75065 22.2592 6.51875 23.7735 6.51875Z" fill="#4586B9"/>
<path d="M44.1211 54.5706C44.1211 56.6396 42.4419 58.3188 40.3729 58.3188C38.2939 58.3188 36.6147 56.6396 36.6147 54.5706C36.6147 52.5016 38.2939 50.8224 40.3729 50.8224C42.4419 50.8224 44.1211 52.5016 44.1211 54.5706Z" fill="#F9F9F9"/>
<path d="M49.0013 17.4285V23.7829C49.0013 28.703 44.7758 32.2663 39.9631 32.2663H24.0908C20.1377 32.2663 16.8568 36.2094 16.8568 40.125V53.7509C16.8568 57.6265 20.2627 59.9004 24.0908 61.0124C28.6686 62.3393 33.6562 62.5941 39.1335 61.0124C42.7743 59.9679 46.3675 57.8689 46.3675 53.7509V48.2936H31.922V46.4769H53.6115C57.8095 46.4769 59.3813 43.5683 60.8456 39.2254C62.3573 34.7451 62.2799 30.4297 60.8456 24.6925C59.8011 20.5445 57.8195 17.441 53.6115 17.441L49.0013 17.4285ZM40.0531 51.9368C41.5474 51.9368 42.7668 53.1462 42.7668 54.6505C42.7668 56.1548 41.5574 57.3942 40.0531 57.3942C38.5488 57.3942 37.3294 56.1548 37.3294 54.6505C37.3294 53.1462 38.5488 51.9368 40.0531 51.9368Z" fill="#FFE634"/>
</svg>
