<svg width="64" height="64" viewBox="0 0 64 64" fill="none" xmlns="http://www.w3.org/2000/svg">
<path d="M58.9842 5H5.01582C5.00708 5 5 5.00708 5 5.01582V58.9842C5 58.9929 5.00708 59 5.01582 59H58.9842C58.9929 59 59 58.9929 59 58.9842V5.01582C59 5.00708 58.9929 5 58.9842 5Z" fill="#CC6699"/>
<path d="M32.25 11C20.25 15.125 12.5 23.5 13.25 28.5C14 33.5 21.5 37.5 24.875 40.125C20.5 42.375 15 45.75 15.125 50.125C15.375 56.125 21.875 54.25 24.625 52.5C27.375 50.75 30.125 45.875 28.375 40.75C32.25 39.75 35.625 41 36.625 41.75C40.5 44.5 38.5 47.625 37.125 48.125C35.75 48.625 36.625 48.875 37.5 48.625C38.375 48.375 40.25 47.125 40.25 45C40.25 39.625 34.5 37.125 27.375 39C23.25 34.625 17.625 32.625 17.875 27.875C18 26.125 18.625 21.625 29.75 16C40.875 10.375 48.75 12.625 47.75 17.75C46.25 25.5 32.75 30.75 28 26.25C27.75 25.75 26.875 25.375 27.375 26.75C29.875 33 50.125 30.125 51 16.875C51.25 9.87498 41.125 7.99998 32.25 11ZM21.5 51C18.375 52 18.5 50 18.625 49.25C19 47.125 20.75 44.5 26 41.875C27.5 46.625 24.125 50.25 21.5 51Z" fill="white"/>
</svg>
