<svg width="64" height="64" viewBox="0 0 64 64" fill="none" xmlns="http://www.w3.org/2000/svg">
<g clip-path="url(#clip0_15_959)">
<path d="M31.8363 0.542024L32.197 0.540676C37.8745 0.582485 43.5367 2.11249 48.3592 5.09432L48.3592 5.09436L48.3654 5.09807C57.4156 10.5151 63.3347 20.7749 63.4861 31.3191H63.4861L63.4863 31.3272C63.8129 41.988 58.2662 52.5551 49.3495 58.3525L49.3494 58.3525L49.3427 58.357C39.4232 65.0365 25.6925 65.2903 15.5581 58.9407L15.5582 58.9406L15.5491 58.9352C5.23368 52.7706 -0.807702 40.3149 0.740513 28.373L0.741487 28.3654L0.742233 28.3579C1.99098 15.737 11.7424 4.59526 24.0183 1.53831L24.0183 1.53832L24.022 1.53738C26.5746 0.881197 29.199 0.551884 31.8363 0.542024ZM31.6556 4.06694L31.2463 4.06762L31.244 4.07906C28.23 4.11971 25.2506 4.713 22.4482 5.82849C11.1061 9.81611 3.16797 21.7655 4.26271 33.8265C4.69633 48.7241 18.9954 61.2798 33.8123 59.8136C49.3944 59.3451 62.1327 43.7247 59.5748 28.3294C58.2159 14.4096 45.0596 4.04454 31.6556 4.06694ZM25.579 29.9337C27.6081 28.2645 29.6243 26.5832 31.6395 24.9026C35.4526 21.7228 39.2625 18.5457 43.1509 15.4581C41.8172 17.4868 40.4739 19.5093 39.1299 21.5327L39.1047 21.5706C37.2567 24.3529 35.4072 27.1372 33.5819 29.9388C30.9147 29.956 28.2407 29.9577 25.579 29.9337ZM30.4067 34.1125C33.0749 34.1129 35.7474 34.1207 38.4215 34.1471C36.0389 36.0889 33.684 38.0529 31.3312 40.0151C27.8493 42.919 24.3718 45.8192 20.8157 48.6385C22.1328 46.6339 23.4597 44.6354 24.7872 42.6358L24.8565 42.5314C26.7146 39.7325 28.5737 36.9315 30.4067 34.1125Z" fill="white" stroke="#303030"/>
</g>
<defs>
<clipPath id="clip0_15_959">
<rect width="64" height="64" fill="white"/>
</clipPath>
</defs>
</svg>
