<svg width="70" height="64" viewBox="0 0 70 64" fill="none" xmlns="http://www.w3.org/2000/svg">
<path d="M3.26666 4.02966H15.4" stroke="#303030" stroke-width="2" stroke-miterlimit="10" stroke-linecap="round"/>
<path d="M15.4 4.02966L25.6667 44.8" stroke="#303030" stroke-width="2" stroke-miterlimit="10" stroke-linecap="round"/>
<path d="M27.5333 44.8H66.0333" stroke="#303030" stroke-width="2" stroke-miterlimit="10" stroke-linecap="round"/>
<path d="M32.2 60.9185C36.0661 60.9185 39.2 57.7349 39.2 53.8074C39.2 49.8802 36.0661 46.6963 32.2 46.6963C28.3339 46.6963 25.2 49.8802 25.2 53.8074C25.2 57.7349 28.3339 60.9185 32.2 60.9185Z" stroke="#303030" stroke-width="2" stroke-miterlimit="10" stroke-linecap="round"/>
<path d="M59.0333 60.9185C62.8992 60.9185 66.0333 57.7349 66.0333 53.8074C66.0333 49.8802 62.8992 46.6963 59.0333 46.6963C55.1672 46.6963 52.0333 49.8802 52.0333 53.8074C52.0333 57.7349 55.1672 60.9185 59.0333 60.9185Z" stroke="#303030" stroke-width="2" stroke-miterlimit="10" stroke-linecap="round"/>
<path d="M59.9667 34.6074H26.3667C24.9666 34.6074 23.5666 33.6592 23.3333 32.237L18.9 16.3556C18.4333 14.2222 19.8333 12.3259 21.9333 12.3259H64.1667C66.2667 12.3259 67.9 14.4593 67.2 16.3556L62.7667 32.237C62.7667 33.6592 61.6 34.6074 59.9667 34.6074Z" stroke="#303030" stroke-width="2" stroke-miterlimit="10" stroke-linecap="round"/>
</svg>
