<svg width="60" height="60" viewBox="0 0 60 60" fill="none" xmlns="http://www.w3.org/2000/svg">
<path d="M52.5 6.25H1.25" stroke="#353535" stroke-width="2" stroke-linecap="round" stroke-linejoin="round"/>
<path d="M22.6258 22.578H27.6258" stroke="#353535" stroke-width="2" stroke-miterlimit="10"/>
<path d="M20.1258 22.578H11.3758" stroke="#353535" stroke-width="2" stroke-miterlimit="10"/>
<path d="M5.12579 27.578H12.5" stroke="#353535" stroke-width="2" stroke-miterlimit="10"/>
<path d="M15 27.578H22.5" stroke="#353535" stroke-width="2" stroke-miterlimit="10"/>
<path d="M32.8287 34.0787L29.7037 37.8287L32.8287 41.5787" stroke="#353535" stroke-width="2" stroke-linecap="round" stroke-linejoin="round"/>
<path d="M44.7037 34.0787L47.8287 37.8287L44.7037 41.5787" stroke="#353535" stroke-width="2" stroke-linecap="round" stroke-linejoin="round"/>
<path d="M37.5168 41.5793L40.0168 34.0793" stroke="#353535" stroke-width="2" stroke-linecap="round" stroke-linejoin="round"/>
<path d="M38.4543 52.2043C46.3934 52.2043 52.8293 45.7684 52.8293 37.8293C52.8293 29.8903 46.3934 23.4543 38.4543 23.4543C30.5152 23.4543 24.0793 29.8903 24.0793 37.8293C24.0793 45.7684 30.5152 52.2043 38.4543 52.2043Z" stroke="#353535" stroke-width="2" stroke-miterlimit="10"/>
<path d="M48.3594 48.3594L58.7837 58.7838" stroke="#353535" stroke-width="2" stroke-linecap="round" stroke-linejoin="round"/>
<path d="M22.6258 22.578H27.6258" stroke="#353535" stroke-width="2" stroke-miterlimit="10"/>
<path d="M20.1258 22.578H11.3758" stroke="#353535" stroke-width="2" stroke-miterlimit="10"/>
<path d="M5.12579 27.578H12.5" stroke="#353535" stroke-width="2" stroke-miterlimit="10"/>
<path d="M15 27.578H22.5" stroke="#353535" stroke-width="2" stroke-miterlimit="10"/>
<path d="M5.12579 37.5H8.87579" stroke="#353535" stroke-width="2" stroke-miterlimit="10"/>
<path d="M11.3758 37.5H20" stroke="#353535" stroke-width="2" stroke-miterlimit="10"/>
<path d="M20.1258 42.5H11.3758" stroke="#353535" stroke-width="2" stroke-miterlimit="10"/>
<path d="M5.12579 47.5H8.74999" stroke="#353535" stroke-width="2" stroke-miterlimit="10"/>
<path d="M11.25 47.5H22.5" stroke="#353535" stroke-width="2" stroke-miterlimit="10"/>
<path d="M11.25 32.5H20" stroke="#353535" stroke-width="2" stroke-miterlimit="10"/>
<path d="M20.1258 52.5H11.3758" stroke="#353535" stroke-width="2" stroke-miterlimit="10"/>
<path d="M5.12579 12.5H8.87579" stroke="#353535" stroke-width="2" stroke-miterlimit="10"/>
<path d="M11.3758 12.5H35" stroke="#353535" stroke-width="2" stroke-miterlimit="10"/>
<path d="M5.12579 12.5H8.87579" stroke="#353535" stroke-width="2" stroke-miterlimit="10"/>
<path d="M11.3758 12.5H35" stroke="#353535" stroke-width="2" stroke-miterlimit="10"/>
<path d="M22.6258 17.5H40" stroke="#353535" stroke-width="2" stroke-miterlimit="10"/>
<path d="M20.1258 17.5H11.3758" stroke="#353535" stroke-width="2" stroke-miterlimit="10"/>
<path d="M22.6258 17.5H40" stroke="#353535" stroke-width="2" stroke-miterlimit="10"/>
<path d="M20.1258 17.5H11.3758" stroke="#353535" stroke-width="2" stroke-miterlimit="10"/>
<path d="M52.5 25V1.25H1.25V58.75H45" stroke="#353535" stroke-width="2" stroke-linecap="round" stroke-linejoin="round"/>
</svg>
