<svg width="70" height="70" viewBox="0 0 70 70" fill="none" xmlns="http://www.w3.org/2000/svg">
<g clip-path="url(#clip0_9_116)">
<path d="M63 67.6307H45.7693C45.3385 67.6307 44.9077 67.9538 44.9077 68.4923C44.9077 69.0307 45.2308 69.3538 45.7693 69.3538H63C63.4308 69.3538 63.8616 69.0307 63.8616 68.4923C63.8616 67.9538 63.4308 67.6307 63 67.6307Z" fill="#303030"/>
<path d="M69.4616 67.6307H67.3077C66.8769 67.6307 66.4462 67.9538 66.4462 68.4923C66.4462 69.0307 66.7692 69.3538 67.3077 69.3538H69.4616C69.8923 69.3538 70.3231 69.0307 70.3231 68.4923C70.3231 67.9538 69.8923 67.6307 69.4616 67.6307Z" fill="#303030"/>
<path d="M32.8462 6.7846H46.8462C47.2769 6.7846 47.7077 6.46152 47.7077 5.92306C47.7077 5.3846 47.3846 5.06152 46.8462 5.06152H32.8462C32.4154 5.06152 31.9846 5.3846 31.9846 5.92306C31.9846 6.46152 32.4154 6.7846 32.8462 6.7846Z" fill="#303030"/>
<path d="M51.1539 6.7846H52.2308C52.6616 6.7846 53.0923 6.46152 53.0923 5.92306C53.0923 5.3846 52.7693 5.06152 52.2308 5.06152H51.1539C50.7231 5.06152 50.2923 5.3846 50.2923 5.92306C50.2923 6.46152 50.7231 6.7846 51.1539 6.7846Z" fill="#303030"/>
<path d="M0.538479 4.63077H1.93848V6.03077C1.93848 6.46154 2.26156 6.89231 2.80002 6.89231C3.33848 6.89231 3.66156 6.56923 3.66156 6.03077V4.63077H5.06156C5.49233 4.63077 5.92309 4.30769 5.92309 3.76923C5.92309 3.23077 5.27694 3.01538 4.84617 3.01538H3.55386V1.61538C3.55386 1.18461 3.23079 0.753845 2.69233 0.753845C2.15386 0.753845 1.93848 1.18461 1.93848 1.61538V3.01538H0.538479C0.10771 3.01538 -0.323059 3.33846 -0.323059 3.87692C-0.323059 4.41538 0.10771 4.63077 0.538479 4.63077Z" fill="#303030"/>
<path d="M68.1692 64.077V10.2308C68.1692 9.80003 67.8462 9.36926 67.3077 9.36926H0.538479C0.10771 9.36926 -0.323059 9.69234 -0.323059 10.2308V44.6923C-0.323059 45.1231 1.78218e-05 45.5539 0.538479 45.5539C1.07694 45.5539 1.40002 45.2308 1.40002 44.6923V19.7077H66.5539V63.3231H1.40002V51.1539C1.40002 50.7231 1.07694 50.2923 0.538479 50.2923C1.78218e-05 50.2923 -0.323059 50.6154 -0.323059 51.1539V64.077C-0.323059 64.5077 1.78218e-05 64.9385 0.538479 64.9385H67.3077C67.7385 64.9385 68.1692 64.5077 68.1692 64.077ZM1.40002 18.0923V11.0923H23.4769V18.0923H1.40002ZM25.0923 18.0923V11.0923H66.5539V18.0923H25.0923Z" fill="#303030"/>
<path d="M63 60.6308C63.4308 60.6308 63.8615 60.3077 63.8615 59.7693V23.1539C63.8615 22.7231 63.5385 22.2924 63 22.2924H4.84616C4.41539 22.2924 3.98462 22.6154 3.98462 23.1539V59.7693C3.98462 60.2001 4.3077 60.6308 4.84616 60.6308H63ZM5.7077 24.0154H62.2462V59.0154H5.7077V24.0154Z" fill="#303030"/>
<path d="M7.00002 15.6154C7.59479 15.6154 8.07694 15.1332 8.07694 14.5385C8.07694 13.9437 7.59479 13.4615 7.00002 13.4615C6.40525 13.4615 5.9231 13.9437 5.9231 14.5385C5.9231 15.1332 6.40525 15.6154 7.00002 15.6154Z" fill="#303030"/>
<path d="M12.3846 15.6154C12.9794 15.6154 13.4616 15.1332 13.4616 14.5385C13.4616 13.9437 12.9794 13.4615 12.3846 13.4615C11.7899 13.4615 11.3077 13.9437 11.3077 14.5385C11.3077 15.1332 11.7899 15.6154 12.3846 15.6154Z" fill="#303030"/>
<path d="M17.7692 15.6154C18.364 15.6154 18.8462 15.1332 18.8462 14.5385C18.8462 13.9437 18.364 13.4615 17.7692 13.4615C17.1745 13.4615 16.6923 13.9437 16.6923 14.5385C16.6923 15.1332 17.1745 15.6154 17.7692 15.6154Z" fill="#303030"/>
<path d="M61.9231 13.7847H29.6154C29.1846 13.7847 28.7538 14.1077 28.7538 14.6462C28.7538 15.1847 29.0769 15.5077 29.6154 15.5077H61.9231C62.3538 15.5077 62.7846 15.1847 62.7846 14.6462C62.7846 14.1077 62.3538 13.7847 61.9231 13.7847Z" fill="#303030"/>
<path d="M57.6154 31.0154H44.6923C44.2615 31.0154 43.8308 31.3385 43.8308 31.8769C43.8308 32.4154 44.1539 32.7385 44.6923 32.7385H57.6154C58.0462 32.7385 58.4769 32.4154 58.4769 31.8769C58.4769 31.3385 58.0462 31.0154 57.6154 31.0154Z" fill="#303030"/>
<path d="M57.6154 37.4769H44.6923C44.2615 37.4769 43.8308 37.8 43.8308 38.3385C43.8308 38.8769 44.1539 39.2 44.6923 39.2H57.6154C58.0462 39.2 58.4769 38.8769 58.4769 38.3385C58.4769 37.8 58.0462 37.4769 57.6154 37.4769Z" fill="#303030"/>
<path d="M57.6154 43.9385H33.9231C33.4923 43.9385 33.0616 44.2616 33.0616 44.8C33.0616 45.3385 33.3846 45.6616 33.9231 45.6616H57.6154C58.0462 45.6616 58.4769 45.3385 58.4769 44.8C58.4769 44.2616 58.0462 43.9385 57.6154 43.9385Z" fill="#303030"/>
<path d="M57.6154 50.4H33.9231C33.4923 50.4 33.0616 50.7231 33.0616 51.2616C33.0616 51.8 33.3846 52.1231 33.9231 52.1231H57.6154C58.0462 52.1231 58.4769 51.8 58.4769 51.2616C58.4769 50.7231 58.0462 50.4 57.6154 50.4Z" fill="#303030"/>
<path d="M29.2923 29.4V29.2923C29.2923 29.2923 29.2923 29.1846 29.1846 29.1846L29.0769 29.0769H28.9693L28.8616 28.9692C28.8616 28.9692 28.7539 28.9692 28.6462 28.9692H28.5385H9.15387C8.7231 28.9692 8.29233 29.2923 8.29233 29.8308V53.5231C8.29233 53.6308 8.29233 53.6308 8.29233 53.7385V53.8462C8.29233 53.8462 8.29233 53.9539 8.40002 53.9539C8.50771 53.8462 8.61541 53.8462 8.61541 53.9539C8.61541 53.9539 8.7231 53.9539 8.7231 54.0616C8.7231 54.0616 8.83079 54.0616 8.83079 54.1692C8.93848 54.1692 9.04617 54.2769 9.15387 54.2769H28.5385C28.9693 54.2769 29.4 53.9539 29.4 53.4154V29.7231C29.2923 29.5077 29.2923 29.5077 29.2923 29.4ZM26.8154 30.4769L10.0154 51.0462V30.4769H26.8154ZM10.8769 52.5539L27.7846 31.9846V52.5539H10.8769Z" fill="#303030"/>
<path d="M0.538475 48.6769C0.646167 48.6769 0.75386 48.6769 0.861552 48.5693C0.969244 48.5693 1.07694 48.5693 1.07694 48.4616C1.18463 48.2462 1.29232 48.1385 1.29232 47.9231C1.29232 47.8154 1.29232 47.7077 1.18463 47.6C1.07694 47.4923 1.18463 47.3846 1.07694 47.3846C0.75386 47.0616 0.215398 47.0616 -0.107679 47.3846C-0.215371 47.4923 -0.215371 47.6 -0.323063 47.6C-0.323063 47.7077 -0.430756 47.8154 -0.430756 47.9231C-0.430756 48.1385 -0.323063 48.3539 -0.215371 48.4616C0.107706 48.6769 0.32309 48.6769 0.538475 48.6769Z" fill="#303030"/>
</g>
<defs>
<clipPath id="clip0_9_116">
<rect width="70" height="70" fill="white"/>
</clipPath>
</defs>
</svg>
