<svg width="70" height="70" viewBox="0 0 70 70" fill="none" xmlns="http://www.w3.org/2000/svg">
<path d="M35 0C15.6987 0 0 15.6987 0 35C0 54.3013 15.6987 70 35 70C54.3013 70 70 54.3013 70 35C70 15.6987 54.3013 0 35 0ZM35 65.3333C18.2747 65.3333 4.66667 51.7253 4.66667 35C4.66667 18.2747 18.2747 4.66667 35 4.66667C51.7253 4.66667 65.3333 18.2747 65.3333 35C65.3333 51.7253 51.7253 65.3333 35 65.3333Z" fill="#303030"/>
<path d="M37.3333 16.3334H32.6667V32.6667H16.3333V37.3334H32.6667V53.6667H37.3333V37.3334H53.6667V32.6667H37.3333V16.3334Z" fill="#303030"/>
</svg>
