<svg width="90" height="90" viewBox="0 0 90 90" fill="none" xmlns="http://www.w3.org/2000/svg">
<path d="M22.4555 39.2411H18.4039C18.0309 39.2411 17.6732 39.3892 17.4095 39.653C17.1458 39.9167 16.9976 40.2744 16.9976 40.6473C16.9976 41.0203 17.1458 41.378 17.4095 41.6417C17.6732 41.9054 18.0309 42.0536 18.4039 42.0536H22.4555C22.8285 42.0536 23.1861 41.9054 23.4499 41.6417C23.7136 41.378 23.8617 41.0203 23.8617 40.6473C23.8617 40.2744 23.7136 39.9167 23.4499 39.653C23.1861 39.3892 22.8285 39.2411 22.4555 39.2411Z" fill="#303030"/>
<path d="M76.1345 19.5908H31.3917V19.585C31.3902 18.3061 30.8815 17.0801 29.9772 16.1758C29.0729 15.2715 27.8468 14.7628 26.5679 14.7614H14.2915C13.0126 14.7628 11.7865 15.2715 10.8822 16.1758C9.97784 17.0801 9.46915 18.3061 9.46769 19.585V41.9813C9.46914 43.2602 9.97782 44.4863 10.8821 45.3906C11.7865 46.295 13.0126 46.8036 14.2915 46.8051H19.0235V58.7123C19.0248 59.8783 19.4886 60.9961 20.313 61.8206C21.1375 62.645 22.2553 63.1088 23.4213 63.1101H45.3931C45.4376 64.6838 45.298 66.2574 44.9773 67.7988C41.9655 68.7299 39.2863 70.5102 37.2611 72.9261C37.0884 73.1309 36.9779 73.3809 36.9425 73.6465C36.9071 73.9121 36.9483 74.1823 37.0612 74.4253C37.1742 74.6682 37.3543 74.8739 37.5802 75.018C37.8061 75.1621 38.0685 75.2386 38.3364 75.2386H61.3986C61.6666 75.2386 61.929 75.1621 62.1549 75.018C62.3808 74.8739 62.5608 74.6682 62.6738 74.4253C62.7868 74.1823 62.828 73.9121 62.7926 73.6465C62.7572 73.3809 62.6466 73.1309 62.4739 72.9261C60.3955 70.4686 57.6481 68.6677 54.5655 67.7421C54.2282 66.2218 54.0695 64.6672 54.0928 63.11H76.1345C77.3005 63.1087 78.4183 62.645 79.2428 61.8205C80.0672 60.996 80.531 59.8782 80.5323 58.7122V23.9887C80.531 22.8227 80.0673 21.7049 79.2428 20.8804C78.4183 20.0559 77.3005 19.5921 76.1345 19.5908ZM12.2802 19.585C12.2808 19.0518 12.4929 18.5406 12.87 18.1636C13.247 17.7865 13.7582 17.5745 14.2915 17.5739H26.5679C27.1011 17.5744 27.6123 17.7865 27.9894 18.1636C28.3664 18.5406 28.5786 19.0518 28.5792 19.585V30.1949C26.6894 30.131 24.7975 30.1726 22.9124 30.3193C19.3113 30.5884 15.748 31.2317 12.2802 32.2388L12.2802 19.585ZM14.2915 43.9925C13.7582 43.9919 13.247 43.7798 12.8699 43.4028C12.4929 43.0257 12.2808 42.5145 12.2802 41.9813V35.1899C12.9495 34.9624 19.8242 32.7157 28.5792 33.0161V41.9813C28.5786 42.5145 28.3665 43.0257 27.9894 43.4028C27.6124 43.7798 27.1011 43.9919 26.5679 43.9925H14.2915ZM69.0877 59.6921C68.7877 59.6921 68.4944 59.6031 68.2449 59.4364C67.9955 59.2698 67.801 59.0328 67.6862 58.7556C67.5714 58.4784 67.5414 58.1734 67.5999 57.8792C67.6584 57.5849 67.8029 57.3146 68.0151 57.1024C68.2272 56.8903 68.4975 56.7458 68.7918 56.6873C69.0861 56.6287 69.3911 56.6588 69.6683 56.7736C69.9455 56.8884 70.1824 57.0828 70.3491 57.3323C70.5158 57.5818 70.6047 57.8751 70.6047 58.1751C70.6047 58.5774 70.4449 58.9633 70.1604 59.2478C69.8759 59.5323 69.4901 59.6921 69.0877 59.6921ZM74.3165 59.6921C74.0164 59.6921 73.7231 59.6031 73.4737 59.4364C73.2242 59.2698 73.0298 59.0328 72.9149 58.7556C72.8001 58.4784 72.7701 58.1734 72.8286 57.8792C72.8872 57.5849 73.0316 57.3146 73.2438 57.1024C73.4559 56.8903 73.7263 56.7458 74.0205 56.6873C74.3148 56.6287 74.6198 56.6588 74.897 56.7736C75.1742 56.8884 75.4111 57.0828 75.5778 57.3323C75.7445 57.5818 75.8335 57.8751 75.8335 58.1751C75.8335 58.5774 75.6736 58.9633 75.3891 59.2478C75.1046 59.5323 74.7188 59.6921 74.3165 59.6921ZM77.7198 53.2654H21.836V46.805H26.5679C27.8468 46.8036 29.0729 46.2949 29.9772 45.3906C30.8815 44.4863 31.3902 43.2602 31.3917 41.9813V33.2005C36.0511 33.6538 41.0832 34.8997 45.9083 37.5536C52.7941 41.3398 60.4113 43.6066 68.2469 44.2013C69.6103 44.3008 70.8613 44.3394 71.9814 44.3393C73.9011 44.3544 75.8193 44.2259 77.7198 43.955V53.2654ZM77.7198 41.111C77.6647 41.1146 77.6097 41.1213 77.5554 41.1313C77.5192 41.138 73.8832 41.8041 68.3477 41.3885C60.9519 40.8113 53.7641 38.6638 47.2637 35.0892C41.901 32.1396 36.3383 30.8331 31.3917 30.3733V22.4033H76.1345C76.5548 22.4038 76.9578 22.571 77.255 22.8682C77.5522 23.1654 77.7193 23.5684 77.7198 23.9887V41.111Z" fill="#303030"/>
</svg>
