<svg width="65" height="65" viewBox="0 0 65 65" fill="none" xmlns="http://www.w3.org/2000/svg">
<path d="M58.5 62.8H49.5C49.1 62.8 48.7 63.1 48.7 63.6C48.7 64.1 49 64.4001 49.5 64.4001H58.5C58.9 64.4001 59.3 64.1 59.3 63.6C59.3 63.1 58.9 62.8 58.5 62.8Z" fill="#1C1F20"/>
<path d="M63.5 62.8H62.5C62.1 62.8 61.7 63.1 61.7 63.6C61.7 64.1 62 64.4001 62.5 64.4001H63.5C63.9 64.4001 64.3 64.1 64.3 63.6C64.3 63.1 63.9 62.8 63.5 62.8Z" fill="#1C1F20"/>
<path d="M9.50001 60.8001H8.30001V59.5001C8.30001 59.1001 8.00001 58.7001 7.50001 58.7001C7.00001 58.7001 6.70001 59.0001 6.70001 59.5001V60.8001H5.50001C5.10001 60.8001 4.70001 61.1001 4.70001 61.6001C4.70001 62.1001 5.00001 62.4001 5.50001 62.4001H6.80001V63.7001C6.80001 64.1001 7.10001 64.5001 7.60001 64.5001C8.10001 64.5001 8.40001 64.2001 8.40001 63.7001V62.4001H9.70001C10.1 62.4001 10.5 62.1001 10.5 61.6001C10.5 61.1001 9.90001 60.8001 9.50001 60.8001Z" fill="#1C1F20"/>
<path d="M63.5 0.800049H1.50001C1.10001 0.800049 0.700012 1.10005 0.700012 1.60005V53.6C0.700012 54 1.00001 54.4001 1.50001 54.4001H10.9C11.3 54.4001 11.7 54.1 11.7 53.6C11.7 53.1 11.4 52.8 10.9 52.8H2.30001V10.3H62.8V52.8H54.1C53.7 52.8 53.3 53.1 53.3 53.6C53.3 54.1 53.6 54.4001 54.1 54.4001H63.5C63.9 54.4001 64.3 54.1 64.3 53.6V1.60005C64.3 1.10005 63.9 0.800049 63.5 0.800049ZM2.30001 8.80005V2.30005H62.8V8.80005H2.30001Z" fill="#1C1F20"/>
<path d="M58.5 49.3001C58.9 49.3001 59.3 49.0001 59.3 48.5001V14.5001C59.3 14.1001 59 13.7001 58.5 13.7001H6.50001C6.10001 13.7001 5.70001 14.0001 5.70001 14.5001V48.5001C5.70001 48.9001 6.00001 49.3001 6.50001 49.3001C7.00001 49.3001 7.30001 49.0001 7.30001 48.5001V15.3001H57.8V48.6001C57.8 48.9001 58.1 49.3001 58.5 49.3001Z" fill="#1C1F20"/>
<path d="M7.5 6.5C8.05228 6.5 8.5 6.05228 8.5 5.5C8.5 4.94772 8.05228 4.5 7.5 4.5C6.94772 4.5 6.5 4.94772 6.5 5.5C6.5 6.05228 6.94772 6.5 7.5 6.5Z" fill="#1C1F20"/>
<path d="M15.5 6.5C16.0523 6.5 16.5 6.05228 16.5 5.5C16.5 4.94772 16.0523 4.5 15.5 4.5C14.9477 4.5 14.5 4.94772 14.5 5.5C14.5 6.05228 14.9477 6.5 15.5 6.5Z" fill="#1C1F20"/>
<path d="M11.5 6.5C12.0523 6.5 12.5 6.05228 12.5 5.5C12.5 4.94772 12.0523 4.5 11.5 4.5C10.9477 4.5 10.5 4.94772 10.5 5.5C10.5 6.05228 10.9477 6.5 11.5 6.5Z" fill="#1C1F20"/>
<path d="M50.7 54.0001L48 51.3001C48.7 50.0001 49.3 48.6001 49.7 47.2001H53.5C53.9 47.2001 54.3 46.9001 54.3 46.4001V38.5001C54.3 38.1001 54 37.7001 53.5 37.7001H49.7C49.3 36.3001 48.7 34.9001 48 33.6001L50.7 30.9001C51 30.6001 51 30.1001 50.7 29.8001L45.1 24.2001C44.8 23.9001 44.3 23.9001 44 24.2001L41.3 27.0001C40 26.3001 38.6 25.7001 37.2 25.3001V21.5001C37.2 21.1001 36.9 20.7001 36.4 20.7001H28.5C28.1 20.7001 27.7 21.0001 27.7 21.5001V25.3001C26.3 25.7001 24.9 26.3001 23.6 27.0001L21 24.3001C20.7 24.0001 20.2 24.0001 19.9 24.3001L14.3 29.9001C14 30.2001 14 30.7001 14.3 31.0001L17 33.7001C16.3 35.0001 15.7 36.4001 15.3 37.8001H11.5C11.1 37.8001 10.7 38.1001 10.7 38.6001V46.5001C10.7 46.9001 11 47.3001 11.5 47.3001H15.3C15.7 48.7001 16.3 50.1001 17 51.4001L14.3 54.0001C14 54.3001 14 54.8001 14.3 55.1001L19.9 60.7001C20.2 61.0001 20.7 61.0001 21 60.7001L23.7 58.0001C25 58.7001 26.4 59.3001 27.8 59.7001V63.5001C27.8 63.9001 28.1 64.3001 28.6 64.3001H36.5C36.9 64.3001 37.3 64.0001 37.3 63.5001V59.7001C38.7 59.3001 40.1 58.7001 41.4 58.0001L44.1 60.7001C44.4 61.0001 44.9 61.0001 45.2 60.7001L50.8 55.1001C51 54.8001 51 54.3001 50.7 54.0001ZM44.6 59.1001L42 56.5001C41.8 56.3001 41.4 56.2001 41.1 56.4001C39.6 57.3001 38 58.0001 36.3 58.4001C36 58.5001 35.7 58.8001 35.7 59.1001V62.8001H29.3V59.1001C29.3 58.8001 29.1 58.5001 28.7 58.4001C27 58.0001 25.4 57.3001 23.9 56.4001C23.6 56.2001 23.2 56.3001 23 56.5001L20.4 59.1001L15.9 54.6001L18.5 52.0001C18.7 51.8001 18.8 51.4001 18.6 51.1001C17.7 49.6001 17 48.0001 16.6 46.3001C16.5 46.0001 16.2 45.7001 15.9 45.7001H12.2V39.3001H15.9C16.2 39.3001 16.5 39.1001 16.6 38.7001C17 37.0001 17.7 35.4001 18.6 33.9001C18.8 33.6001 18.7 33.2001 18.5 33.0001L15.9 30.4001L20.4 25.9001L23 28.5001C23.2 28.7001 23.6 28.8001 23.9 28.6001C25.4 27.7001 27 27.0001 28.7 26.6001C29 26.5001 29.3 26.2001 29.3 25.9001V22.2001H35.7V25.9001C35.7 26.2001 35.9 26.5001 36.3 26.6001C38 27.0001 39.6 27.7001 41.1 28.6001C41.4 28.8001 41.8 28.7001 42 28.5001L44.6 25.9001L49.1 30.4001L46.5 33.0001C46.3 33.2001 46.2 33.6001 46.4 33.9001C47.3 35.4001 48 37.0001 48.4 38.7001C48.5 39.0001 48.8 39.3001 49.1 39.3001H52.8V45.7001H49.1C48.8 45.7001 48.5 45.9001 48.4 46.3001C48 48.0001 47.3 49.6001 46.4 51.1001C46.2 51.4001 46.3 51.8001 46.5 52.0001L49.1 54.6001L44.6 59.1001Z" fill="#1C1F20"/>
<path d="M32.5 31.3C26.3 31.3 21.2 36.3 21.2 42.6C21.2 48.9 26.2 53.9001 32.5 53.9001C38.8 53.9001 43.8 48.9 43.8 42.6C43.8 36.3 38.7 31.3 32.5 31.3ZM32.5 52.3C27.1 52.3 22.7 47.9 22.7 42.5C22.7 37.1 27.1 32.7001 32.5 32.7001C37.9 32.7001 42.3 37.1 42.3 42.5C42.3 47.9 37.9 52.3 32.5 52.3Z" fill="#1C1F20"/>
</svg>
