<svg width="70" height="70" viewBox="0 0 70 70" fill="none" xmlns="http://www.w3.org/2000/svg">
<path d="M56 40H8V18H6V45C6.00159 46.3256 6.52888 47.5964 7.46622 48.5338C8.40356 49.4711 9.67441 49.9984 11 50H23.867L23.117 56H22C21.2044 56 20.4413 56.3161 19.8787 56.8787C19.3161 57.4413 19 58.2043 19 59C19 59.7957 19.3161 60.5587 19.8787 61.1213C20.4413 61.6839 21.2044 62 22 62H42C42.7957 62 43.5587 61.6839 44.1213 61.1213C44.6839 60.5587 45 59.7957 45 59C45 58.2043 44.6839 57.4413 44.1213 56.8787C43.5587 56.3161 42.7957 56 42 56H40.883L40.133 50H53C54.3256 49.9984 55.5964 49.4711 56.5338 48.5338C57.4711 47.5964 57.9984 46.3256 58 45V25H56V40ZM43 59C43 59.2652 42.8946 59.5196 42.7071 59.7071C42.5196 59.8946 42.2652 60 42 60H22C21.7348 60 21.4804 59.8946 21.2929 59.7071C21.1054 59.5196 21 59.2652 21 59C21 58.7348 21.1054 58.4804 21.2929 58.2929C21.4804 58.1054 21.7348 58 22 58H42C42.2652 58 42.5196 58.1054 42.7071 58.2929C42.8946 58.4804 43 58.7348 43 59ZM38.867 56H25.133L25.883 50H38.117L38.867 56ZM53 48H11C10.2044 48 9.44129 47.6839 8.87868 47.1213C8.31607 46.5587 8 45.7956 8 45V42H56V45C56 45.7956 55.6839 46.5587 55.1213 47.1213C54.5587 47.6839 53.7957 48 53 48Z" fill="#303030"/>
<path d="M40 10H23V12H40V10Z" fill="#303030"/>
<path d="M52 44H50V46H52V44Z" fill="#303030"/>
<path d="M52 4C50.3046 3.99899 48.6368 4.42931 47.1535 5.25047C45.6702 6.07163 44.4202 7.25664 43.5211 8.69401C42.622 10.1314 42.1034 11.7739 42.014 13.4669C41.9245 15.16 42.2673 16.8479 43.01 18.372L41.143 21.485C41.0451 21.6487 40.996 21.837 41.0016 22.0276C41.0072 22.2183 41.0672 22.4034 41.1745 22.561C41.2818 22.7187 41.432 22.8424 41.6073 22.9175C41.7827 22.9926 41.9758 23.0161 42.164 22.985L46.407 22.277C48.0551 23.4019 50.0046 24.0024 52 24C54.6522 24 57.1957 22.9464 59.0711 21.0711C60.9464 19.1957 62 16.6522 62 14C62 11.3478 60.9464 8.8043 59.0711 6.92893C57.1957 5.05357 54.6522 4 52 4ZM52 22C50.2862 22.0012 48.6181 21.4476 47.245 20.422C47.0719 20.2922 46.8614 20.222 46.645 20.222C46.5901 20.2219 46.5352 20.2262 46.481 20.235L43.968 20.654L45.01 18.917C45.1007 18.7655 45.1497 18.5928 45.1519 18.4163C45.1542 18.2397 45.1097 18.0658 45.023 17.912C44.1639 16.3796 43.8332 14.607 44.0818 12.8679C44.3304 11.1288 45.1446 9.51983 46.3986 8.28949C47.6526 7.05914 49.2768 6.27579 51.0203 6.06037C52.7638 5.84495 54.5298 6.20944 56.0456 7.09757C57.5613 7.9857 58.7426 9.34808 59.4071 10.9744C60.0715 12.6007 60.1821 14.4005 59.7218 16.0959C59.2616 17.7913 58.256 19.2881 56.8604 20.3552C55.4648 21.4223 53.7568 22.0003 52 22Z" fill="#303030"/>
<path d="M53 10H51V13H48V15H51V18H53V15H56V13H53V10Z" fill="#303030"/>
<path d="M15.293 19.707C15.4805 19.8946 15.7348 19.9999 16 20C16.1315 20.0004 16.2617 19.9746 16.383 19.924C16.5657 19.8483 16.7218 19.72 16.8316 19.5556C16.9415 19.3911 17 19.1978 17 19V16H18C18.7956 16 19.5587 15.6839 20.1213 15.1213C20.6839 14.5587 21 13.7956 21 13V5C21 4.20435 20.6839 3.44129 20.1213 2.87868C19.5587 2.31607 18.7956 2 18 2H5C4.20435 2 3.44129 2.31607 2.87868 2.87868C2.31607 3.44129 2 4.20435 2 5V13C2 13.7956 2.31607 14.5587 2.87868 15.1213C3.44129 15.6839 4.20435 16 5 16H11.586L15.293 19.707ZM4 13V5C4 4.73478 4.10536 4.48043 4.29289 4.29289C4.48043 4.10536 4.73478 4 5 4H18C18.2652 4 18.5196 4.10536 18.7071 4.29289C18.8946 4.48043 19 4.73478 19 5V13C19 13.2652 18.8946 13.5196 18.7071 13.7071C18.5196 13.8946 18.2652 14 18 14H16C15.7348 14 15.4804 14.1054 15.2929 14.2929C15.1054 14.4804 15 14.7348 15 15V16.586L12.707 14.293C12.5195 14.1055 12.2652 14.0001 12 14H5C4.73478 14 4.48043 13.8946 4.29289 13.7071C4.10536 13.5196 4 13.2652 4 13Z" fill="#303030"/>
<path d="M16 6H7V8H16V6Z" fill="#303030"/>
<path d="M16 10H7V12H16V10Z" fill="#303030"/>
<path d="M29 25H27V27H29V25Z" fill="#303030"/>
<path d="M19.514 17.515C19.2347 17.7949 19.0445 18.1512 18.9676 18.539C18.8907 18.9268 18.9305 19.3288 19.0819 19.694C19.2333 20.0592 19.4896 20.3714 19.8184 20.591C20.1471 20.8107 20.5336 20.928 20.929 20.928C21.1018 20.925 21.2736 20.8998 21.44 20.853L23.115 22.529C22.5906 23.2645 22.2401 24.1094 22.09 25H19.722C19.5019 24.6188 19.1621 24.3208 18.7553 24.1523C18.3486 23.9838 17.8976 23.9542 17.4723 24.0682C17.047 24.1821 16.6713 24.4332 16.4032 24.7825C16.1352 25.1318 15.9899 25.5598 15.9899 26C15.9899 26.4403 16.1352 26.8683 16.4032 27.2176C16.6713 27.5669 17.047 27.8179 17.4723 27.9319C17.8976 28.0458 18.3486 28.0163 18.7553 27.8478C19.1621 27.6793 19.5019 27.3813 19.722 27H22.09C22.2401 27.8907 22.5906 28.7356 23.115 29.471L21.439 31.147C21.1017 31.0567 20.7466 31.0562 20.409 31.1457C20.0715 31.2352 19.7633 31.4115 19.515 31.657C19.2653 31.9045 19.0852 32.2135 18.993 32.5527C18.9007 32.892 18.8995 33.2496 18.9895 33.5894C19.0795 33.9293 19.2575 34.2394 19.5056 34.4886C19.7536 34.7377 20.0629 34.9171 20.4024 35.0086C20.7419 35.1001 21.0994 35.1005 21.4391 35.0098C21.7788 34.919 22.0885 34.7403 22.3371 34.4917C22.5857 34.2431 22.7644 33.9334 22.8551 33.5937C22.9459 33.2541 22.9455 32.8965 22.854 32.557L24.53 30.881C25.2648 31.4067 26.1094 31.7585 27 31.91V34.278C26.6187 34.4982 26.3207 34.838 26.1522 35.2447C25.9838 35.6515 25.9542 36.1025 26.0681 36.5277C26.1821 36.953 26.4332 37.3288 26.7825 37.5968C27.1318 37.8648 27.5597 38.0101 28 38.0101C28.4403 38.0101 28.8682 37.8648 29.2175 37.5968C29.5668 37.3288 29.8179 36.953 29.9319 36.5277C30.0458 36.1025 30.0162 35.6515 29.8478 35.2447C29.6793 34.838 29.3813 34.4982 29 34.278V31.91C29.8907 31.7599 30.7356 31.4094 31.471 30.885L33.147 32.561C33.033 32.9863 33.0625 33.4373 33.231 33.8441C33.3995 34.2509 33.6974 34.5907 34.0787 34.8109C34.46 35.031 34.9033 35.1192 35.3398 35.0617C35.7763 35.0043 36.1817 34.8044 36.493 34.4931C36.8043 34.1817 37.0042 33.7764 37.0617 33.3399C37.1192 32.9033 37.031 32.4601 36.8108 32.0788C36.5907 31.6975 36.2508 31.3995 35.8441 31.231C35.4373 31.0626 34.9863 31.0331 34.561 31.147L32.885 29.471C33.4094 28.7356 33.7599 27.8907 33.91 27H36.278C36.4981 27.3813 36.8379 27.6793 37.2447 27.8478C37.6514 28.0163 38.1024 28.0458 38.5277 27.9319C38.953 27.8179 39.3287 27.5669 39.5968 27.2176C39.8648 26.8683 40.0101 26.4403 40.0101 26C40.0101 25.5598 39.8648 25.1318 39.5968 24.7825C39.3287 24.4332 38.953 24.1821 38.5277 24.0682C38.1024 23.9542 37.6514 23.9838 37.2447 24.1523C36.8379 24.3208 36.4981 24.6188 36.278 25H33.91C33.7599 24.1094 33.4094 23.2645 32.885 22.529L34.561 20.853C34.7271 20.8998 34.8985 20.925 35.071 20.928C35.4904 20.9309 35.9001 20.8021 36.2424 20.5599C36.5848 20.3177 36.8426 19.9742 36.9795 19.5779C37.1165 19.1815 37.1257 18.7521 37.0059 18.3502C36.8861 17.9483 36.6433 17.5941 36.3116 17.3375C35.9799 17.0808 35.5762 16.9346 35.1571 16.9194C34.738 16.9042 34.3246 17.0208 33.9753 17.2528C33.6259 17.4848 33.3581 17.8206 33.2095 18.2127C33.061 18.6049 33.0391 19.0338 33.147 19.439L31.471 21.115C30.7356 20.5907 29.8907 20.2402 29 20.09V17.722C29.3813 17.5019 29.6793 17.1621 29.8478 16.7554C30.0162 16.3486 30.0458 15.8976 29.9319 15.4724C29.8179 15.0471 29.5668 14.6713 29.2175 14.4033C28.8682 14.1353 28.4403 13.99 28 13.99C27.5597 13.99 27.1318 14.1353 26.7825 14.4033C26.4332 14.6713 26.1821 15.0471 26.0681 15.4724C25.9542 15.8976 25.9838 16.3486 26.1522 16.7554C26.3207 17.1621 26.6187 17.5019 27 17.722V20.09C26.1093 20.2402 25.2644 20.5907 24.529 21.115L22.853 19.439C22.9442 19.1019 22.9452 18.7466 22.8558 18.409C22.7665 18.0713 22.59 17.763 22.344 17.515C22.1583 17.3291 21.9377 17.1816 21.6949 17.0809C21.4521 16.9803 21.1918 16.9285 20.929 16.9285C20.6662 16.9285 20.4059 16.9803 20.1631 17.0809C19.9203 17.1816 19.6997 17.3291 19.514 17.515ZM28 22C28.7118 22.0035 29.4094 22.1994 30.019 22.567L29.293 23.293L30.707 24.707L31.433 23.981C31.8038 24.5892 32 25.2877 32 26C32 26.7123 31.8038 27.4109 31.433 28.019L30.707 27.293L29.293 28.707L30.019 29.433C29.4108 29.8039 28.7123 30.0001 28 30.0001C27.2877 30.0001 26.5892 29.8039 25.981 29.433L26.707 28.707L25.293 27.293L24.567 28.019C24.1962 27.4109 24 26.7123 24 26C24 25.2877 24.1962 24.5892 24.567 23.981L25.293 24.707L26.707 23.293L25.981 22.567C26.5906 22.1994 27.2882 22.0035 28 22Z" fill="#303030"/>
<path d="M44 28H42V30H44V28Z" fill="#303030"/>
<path d="M52 28H46V30H52V28Z" fill="#303030"/>
<path d="M52 32H42V34H52V32Z" fill="#303030"/>
<path d="M35.5 3C31.364 3 28 6.364 28 10.5C28 14.636 31.364 18 35.5 18C39.636 18 43 14.636 43 10.5C43 6.364 39.636 3 35.5 3ZM35.5 17C31.916 17 29 14.084 29 10.5C29 6.916 31.916 4 35.5 4C39.084 4 42 6.916 42 10.5C42 14.084 39.084 17 35.5 17Z" fill="black"/>
<path d="M36 6.5H35V10H31.5V11H35V14.5H36V11H39.5V10H36V6.5Z" fill="black"/>
</svg>
