<svg width="93" height="29" viewBox="0 0 93 29" fill="none" xmlns="http://www.w3.org/2000/svg">
<path d="M0.195984 21.051L5.93399 15.9117L7.12099 17.1649L2.33098 21.4926L8.31299 23.921L7.62498 25.5049L0.473984 22.6259L0.195984 21.051ZM8.97398 14.384C9.55098 14.0013 10.173 13.6643 10.841 13.373C11.516 13.0804 12.179 12.8768 12.828 12.7624C13.533 12.638 14.195 12.6204 14.814 12.7096C15.432 12.7908 15.977 12.9756 16.449 13.2642C16.792 13.4764 17.073 13.7119 17.293 13.9708C17.52 14.2282 17.704 14.5014 17.846 14.7904C17.988 15.0794 18.098 15.3781 18.178 15.6864C18.257 15.9947 18.323 16.3012 18.377 16.6057L18.867 19.3827L16.486 19.8024L21.033 26.7478L19.555 27.7149L14.563 20.1415L12.519 20.5019L13.922 28.4602L12.203 28.7633L9.88399 15.6117L8.97398 14.384ZM12.241 18.9271L16.918 18.1025L16.772 17.273C16.739 17.0887 16.696 16.8897 16.642 16.6762C16.586 16.4546 16.511 16.2406 16.417 16.0341C16.329 15.8181 16.219 15.6145 16.086 15.4231C15.96 15.2222 15.805 15.0511 15.624 14.9096C15.17 14.5847 14.731 14.3935 14.308 14.3359C13.891 14.2689 13.49 14.2694 13.106 14.3372C12.432 14.4559 11.909 14.6515 11.536 14.9239L12.241 18.9271ZM24.048 18.4691L24.436 26.8543L22.69 26.9389L21.993 11.4561C22.253 11.336 22.512 11.2325 22.769 11.1458C23.026 11.0591 23.27 10.9873 23.499 10.9302C23.728 10.8652 23.934 10.8165 24.118 10.784C24.301 10.7434 24.453 10.7126 24.573 10.6914C24.821 10.6476 25.189 10.5993 25.675 10.5466C26.17 10.4924 26.71 10.484 27.295 10.5213L31.899 25.3152L30.242 25.8305L27.738 17.8183L24.048 18.4691ZM24.851 12.2662C24.658 12.3001 24.468 12.3461 24.28 12.404C24.09 12.454 23.919 12.5131 23.766 12.5814L23.963 16.8603L27.22 16.2859L25.99 12.1893C25.822 12.1775 25.641 12.1805 25.446 12.1984C25.249 12.2083 25.051 12.2309 24.851 12.2662ZM39.032 10.0259L33.911 10.9289L34.626 14.9801L37.823 14.4163L38.101 15.9911L34.903 16.555L36.307 24.5133L34.575 24.8185L32.18 11.2341L31.408 9.73418L38.753 8.43898L39.032 10.0259ZM43.763 14.9927L44.151 23.378L42.406 23.4626L41.709 7.97978C41.968 7.85958 42.227 7.75618 42.484 7.66948C42.742 7.58278 42.985 7.51088 43.215 7.45388C43.443 7.38888 43.649 7.34008 43.834 7.30758C44.017 7.26708 44.168 7.23618 44.288 7.21498C44.537 7.17118 44.904 7.12298 45.391 7.07018C45.885 7.01608 46.425 7.00768 47.01 7.04498L51.614 21.8389L49.957 22.3541L47.454 14.342L43.763 14.9927ZM44.566 8.78988C44.374 8.82378 44.183 8.86968 43.995 8.92768C43.806 8.97758 43.634 9.03678 43.481 9.10508L43.678 13.384L46.936 12.8095L45.705 8.71288C45.538 8.70108 45.357 8.70418 45.161 8.72208C44.965 8.73188 44.766 8.75448 44.566 8.78988ZM58.435 6.60458L53.663 7.44618L54.377 11.4974L57.575 10.9336L57.853 12.5084L54.655 13.0723L55.598 18.4219C56.011 18.6053 56.416 18.7487 56.814 18.852C57.211 18.9472 57.61 19.0091 58.012 19.0374C58.422 19.0643 58.839 19.0611 59.262 19.0277C59.686 18.9943 60.13 18.9366 60.595 18.8546L60.753 20.4506C59.959 20.5905 59.197 20.6505 58.467 20.6306C57.745 20.6173 57.059 20.5442 56.407 20.4111C55.764 20.2767 55.158 20.0944 54.588 19.8643C54.017 19.6261 53.496 19.3628 53.023 19.0742L53.714 17.7873L51.944 7.74928L51.171 6.24928L58.156 5.01778L58.435 6.60458ZM60.812 4.54928L62.543 4.24408L64.941 17.8405L70.278 16.8993L70.556 18.4741L63.487 19.7205L60.812 4.54928ZM80.605 0.811279L82.175 1.06748L78.504 22.4274L76.935 22.1712L80.605 0.811279ZM92.451 6.40778L86.715 11.5592L85.527 10.306L90.317 5.97828L84.336 3.54988L85.024 1.96598L92.173 4.83298L92.451 6.40778Z" fill="#B850F9"/>
</svg>
