<svg width="64" height="64" viewBox="0 0 64 64" fill="none" xmlns="http://www.w3.org/2000/svg">
<g clip-path="url(#clip0_22_33)">
<path d="M32 63.9995C49.6731 63.9995 64 49.6726 64 31.9995C64 14.3264 49.6731 -0.000488281 32 -0.000488281C14.3269 -0.000488281 0 14.3264 0 31.9995C0 49.6726 14.3269 63.9995 32 63.9995Z" fill="#007AB9"/>
<path d="M51.1197 34.5746V47.7675H43.4708V35.4587C43.4708 32.3681 42.3664 30.2575 39.597 30.2575C37.4835 30.2575 36.228 31.6785 35.6736 33.0544C35.4722 33.5461 35.4203 34.2289 35.4203 34.9185V47.7669H27.7708C27.7708 47.7669 27.8735 26.92 27.7708 24.762H35.4209V28.022C35.4055 28.0477 35.3838 28.0728 35.3701 28.0973H35.4209V28.022C36.4374 26.4579 38.2502 24.2218 42.3145 24.2218C47.3469 24.2218 51.1197 27.5098 51.1197 34.5746ZM19.7688 13.6729C17.1523 13.6729 15.4404 15.3904 15.4404 17.647C15.4404 19.8557 17.1026 21.6229 19.6684 21.6229H19.7181C22.386 21.6229 24.0448 19.8557 24.0448 17.647C23.994 15.3904 22.386 13.6729 19.7688 13.6729ZM15.895 47.7675H23.5417V24.762H15.895V47.7675Z" fill="#F1F2F2"/>
</g>
<defs>
<clipPath id="clip0_22_33">
<rect width="64" height="64" fill="white"/>
</clipPath>
</defs>
</svg>
